<svg xmlns="http://www.w3.org/2000/svg" xmlns:xlink="http://www.w3.org/1999/xlink" width="160.807" height="379.128" viewBox="0 0 160.807 379.128">
	<defs>
		<clipPath id="clip-path">
			<rect width="160.807" height="379.128" fill="none" />
		</clipPath>
	</defs>
	<g id="Repeat_Grid_13" data-name="Repeat Grid 13" opacity="0.2" clip-path="url(#clip-path)">
		<g transform="translate(-1501 -3235)">
			<rect id="Rectangle_42" data-name="Rectangle 42" width="8" height="8" rx="4" transform="translate(1501 3235)" fill="#ff7e00" />
		</g>
		<g transform="translate(-1483 -3235)">
			<rect id="Rectangle_42-2" data-name="Rectangle 42" width="8" height="8" rx="4" transform="translate(1501 3235)" fill="#ff7e00" />
		</g>
		<g transform="translate(-1465 -3235)">
			<rect id="Rectangle_42-3" data-name="Rectangle 42" width="8" height="8" rx="4" transform="translate(1501 3235)" fill="#ff7e00" />
		</g>
		<g transform="translate(-1447 -3235)">
			<rect id="Rectangle_42-4" data-name="Rectangle 42" width="8" height="8" rx="4" transform="translate(1501 3235)" fill="#ff7e00" />
		</g>
		<g transform="translate(-1429 -3235)">
			<rect id="Rectangle_42-5" data-name="Rectangle 42" width="8" height="8" rx="4" transform="translate(1501 3235)" fill="#ff7e00" />
		</g>
		<g transform="translate(-1411 -3235)">
			<rect id="Rectangle_42-6" data-name="Rectangle 42" width="8" height="8" rx="4" transform="translate(1501 3235)" fill="#ff7e00" />
		</g>
		<g transform="translate(-1393 -3235)">
			<rect id="Rectangle_42-7" data-name="Rectangle 42" width="8" height="8" rx="4" transform="translate(1501 3235)" fill="#ff7e00" />
		</g>
		<g transform="translate(-1375 -3235)">
			<rect id="Rectangle_42-8" data-name="Rectangle 42" width="8" height="8" rx="4" transform="translate(1501 3235)" fill="#ff7e00" />
		</g>
		<g transform="translate(-1357 -3235)">
			<rect id="Rectangle_42-9" data-name="Rectangle 42" width="8" height="8" rx="4" transform="translate(1501 3235)" fill="#ff7e00" />
		</g>
		<g transform="translate(-1501 -3207)">
			<rect id="Rectangle_42-10" data-name="Rectangle 42" width="8" height="8" rx="4" transform="translate(1501 3235)" fill="#ff7e00" />
		</g>
		<g transform="translate(-1483 -3207)">
			<rect id="Rectangle_42-11" data-name="Rectangle 42" width="8" height="8" rx="4" transform="translate(1501 3235)" fill="#ff7e00" />
		</g>
		<g transform="translate(-1465 -3207)">
			<rect id="Rectangle_42-12" data-name="Rectangle 42" width="8" height="8" rx="4" transform="translate(1501 3235)" fill="#ff7e00" />
		</g>
		<g transform="translate(-1447 -3207)">
			<rect id="Rectangle_42-13" data-name="Rectangle 42" width="8" height="8" rx="4" transform="translate(1501 3235)" fill="#ff7e00" />
		</g>
		<g transform="translate(-1429 -3207)">
			<rect id="Rectangle_42-14" data-name="Rectangle 42" width="8" height="8" rx="4" transform="translate(1501 3235)" fill="#ff7e00" />
		</g>
		<g transform="translate(-1411 -3207)">
			<rect id="Rectangle_42-15" data-name="Rectangle 42" width="8" height="8" rx="4" transform="translate(1501 3235)" fill="#ff7e00" />
		</g>
		<g transform="translate(-1393 -3207)">
			<rect id="Rectangle_42-16" data-name="Rectangle 42" width="8" height="8" rx="4" transform="translate(1501 3235)" fill="#ff7e00" />
		</g>
		<g transform="translate(-1375 -3207)">
			<rect id="Rectangle_42-17" data-name="Rectangle 42" width="8" height="8" rx="4" transform="translate(1501 3235)" fill="#ff7e00" />
		</g>
		<g transform="translate(-1357 -3207)">
			<rect id="Rectangle_42-18" data-name="Rectangle 42" width="8" height="8" rx="4" transform="translate(1501 3235)" fill="#ff7e00" />
		</g>
		<g transform="translate(-1501 -3179)">
			<rect id="Rectangle_42-19" data-name="Rectangle 42" width="8" height="8" rx="4" transform="translate(1501 3235)" fill="#ff7e00" />
		</g>
		<g transform="translate(-1483 -3179)">
			<rect id="Rectangle_42-20" data-name="Rectangle 42" width="8" height="8" rx="4" transform="translate(1501 3235)" fill="#ff7e00" />
		</g>
		<g transform="translate(-1465 -3179)">
			<rect id="Rectangle_42-21" data-name="Rectangle 42" width="8" height="8" rx="4" transform="translate(1501 3235)" fill="#ff7e00" />
		</g>
		<g transform="translate(-1447 -3179)">
			<rect id="Rectangle_42-22" data-name="Rectangle 42" width="8" height="8" rx="4" transform="translate(1501 3235)" fill="#ff7e00" />
		</g>
		<g transform="translate(-1429 -3179)">
			<rect id="Rectangle_42-23" data-name="Rectangle 42" width="8" height="8" rx="4" transform="translate(1501 3235)" fill="#ff7e00" />
		</g>
		<g transform="translate(-1411 -3179)">
			<rect id="Rectangle_42-24" data-name="Rectangle 42" width="8" height="8" rx="4" transform="translate(1501 3235)" fill="#ff7e00" />
		</g>
		<g transform="translate(-1393 -3179)">
			<rect id="Rectangle_42-25" data-name="Rectangle 42" width="8" height="8" rx="4" transform="translate(1501 3235)" fill="#ff7e00" />
		</g>
		<g transform="translate(-1375 -3179)">
			<rect id="Rectangle_42-26" data-name="Rectangle 42" width="8" height="8" rx="4" transform="translate(1501 3235)" fill="#ff7e00" />
		</g>
		<g transform="translate(-1357 -3179)">
			<rect id="Rectangle_42-27" data-name="Rectangle 42" width="8" height="8" rx="4" transform="translate(1501 3235)" fill="#ff7e00" />
		</g>
		<g transform="translate(-1501 -3151)">
			<rect id="Rectangle_42-28" data-name="Rectangle 42" width="8" height="8" rx="4" transform="translate(1501 3235)" fill="#ff7e00" />
		</g>
		<g transform="translate(-1483 -3151)">
			<rect id="Rectangle_42-29" data-name="Rectangle 42" width="8" height="8" rx="4" transform="translate(1501 3235)" fill="#ff7e00" />
		</g>
		<g transform="translate(-1465 -3151)">
			<rect id="Rectangle_42-30" data-name="Rectangle 42" width="8" height="8" rx="4" transform="translate(1501 3235)" fill="#ff7e00" />
		</g>
		<g transform="translate(-1447 -3151)">
			<rect id="Rectangle_42-31" data-name="Rectangle 42" width="8" height="8" rx="4" transform="translate(1501 3235)" fill="#ff7e00" />
		</g>
		<g transform="translate(-1429 -3151)">
			<rect id="Rectangle_42-32" data-name="Rectangle 42" width="8" height="8" rx="4" transform="translate(1501 3235)" fill="#ff7e00" />
		</g>
		<g transform="translate(-1411 -3151)">
			<rect id="Rectangle_42-33" data-name="Rectangle 42" width="8" height="8" rx="4" transform="translate(1501 3235)" fill="#ff7e00" />
		</g>
		<g transform="translate(-1393 -3151)">
			<rect id="Rectangle_42-34" data-name="Rectangle 42" width="8" height="8" rx="4" transform="translate(1501 3235)" fill="#ff7e00" />
		</g>
		<g transform="translate(-1375 -3151)">
			<rect id="Rectangle_42-35" data-name="Rectangle 42" width="8" height="8" rx="4" transform="translate(1501 3235)" fill="#ff7e00" />
		</g>
		<g transform="translate(-1357 -3151)">
			<rect id="Rectangle_42-36" data-name="Rectangle 42" width="8" height="8" rx="4" transform="translate(1501 3235)" fill="#ff7e00" />
		</g>
		<g transform="translate(-1501 -3123)">
			<rect id="Rectangle_42-37" data-name="Rectangle 42" width="8" height="8" rx="4" transform="translate(1501 3235)" fill="#ff7e00" />
		</g>
		<g transform="translate(-1483 -3123)">
			<rect id="Rectangle_42-38" data-name="Rectangle 42" width="8" height="8" rx="4" transform="translate(1501 3235)" fill="#ff7e00" />
		</g>
		<g transform="translate(-1465 -3123)">
			<rect id="Rectangle_42-39" data-name="Rectangle 42" width="8" height="8" rx="4" transform="translate(1501 3235)" fill="#ff7e00" />
		</g>
		<g transform="translate(-1447 -3123)">
			<rect id="Rectangle_42-40" data-name="Rectangle 42" width="8" height="8" rx="4" transform="translate(1501 3235)" fill="#ff7e00" />
		</g>
		<g transform="translate(-1429 -3123)">
			<rect id="Rectangle_42-41" data-name="Rectangle 42" width="8" height="8" rx="4" transform="translate(1501 3235)" fill="#ff7e00" />
		</g>
		<g transform="translate(-1411 -3123)">
			<rect id="Rectangle_42-42" data-name="Rectangle 42" width="8" height="8" rx="4" transform="translate(1501 3235)" fill="#ff7e00" />
		</g>
		<g transform="translate(-1393 -3123)">
			<rect id="Rectangle_42-43" data-name="Rectangle 42" width="8" height="8" rx="4" transform="translate(1501 3235)" fill="#ff7e00" />
		</g>
		<g transform="translate(-1375 -3123)">
			<rect id="Rectangle_42-44" data-name="Rectangle 42" width="8" height="8" rx="4" transform="translate(1501 3235)" fill="#ff7e00" />
		</g>
		<g transform="translate(-1357 -3123)">
			<rect id="Rectangle_42-45" data-name="Rectangle 42" width="8" height="8" rx="4" transform="translate(1501 3235)" fill="#ff7e00" />
		</g>
		<g transform="translate(-1501 -3095)">
			<rect id="Rectangle_42-46" data-name="Rectangle 42" width="8" height="8" rx="4" transform="translate(1501 3235)" fill="#ff7e00" />
		</g>
		<g transform="translate(-1483 -3095)">
			<rect id="Rectangle_42-47" data-name="Rectangle 42" width="8" height="8" rx="4" transform="translate(1501 3235)" fill="#ff7e00" />
		</g>
		<g transform="translate(-1465 -3095)">
			<rect id="Rectangle_42-48" data-name="Rectangle 42" width="8" height="8" rx="4" transform="translate(1501 3235)" fill="#ff7e00" />
		</g>
		<g transform="translate(-1447 -3095)">
			<rect id="Rectangle_42-49" data-name="Rectangle 42" width="8" height="8" rx="4" transform="translate(1501 3235)" fill="#ff7e00" />
		</g>
		<g transform="translate(-1429 -3095)">
			<rect id="Rectangle_42-50" data-name="Rectangle 42" width="8" height="8" rx="4" transform="translate(1501 3235)" fill="#ff7e00" />
		</g>
		<g transform="translate(-1411 -3095)">
			<rect id="Rectangle_42-51" data-name="Rectangle 42" width="8" height="8" rx="4" transform="translate(1501 3235)" fill="#ff7e00" />
		</g>
		<g transform="translate(-1393 -3095)">
			<rect id="Rectangle_42-52" data-name="Rectangle 42" width="8" height="8" rx="4" transform="translate(1501 3235)" fill="#ff7e00" />
		</g>
		<g transform="translate(-1375 -3095)">
			<rect id="Rectangle_42-53" data-name="Rectangle 42" width="8" height="8" rx="4" transform="translate(1501 3235)" fill="#ff7e00" />
		</g>
		<g transform="translate(-1357 -3095)">
			<rect id="Rectangle_42-54" data-name="Rectangle 42" width="8" height="8" rx="4" transform="translate(1501 3235)" fill="#ff7e00" />
		</g>
		<g transform="translate(-1501 -3067)">
			<rect id="Rectangle_42-55" data-name="Rectangle 42" width="8" height="8" rx="4" transform="translate(1501 3235)" fill="#ff7e00" />
		</g>
		<g transform="translate(-1483 -3067)">
			<rect id="Rectangle_42-56" data-name="Rectangle 42" width="8" height="8" rx="4" transform="translate(1501 3235)" fill="#ff7e00" />
		</g>
		<g transform="translate(-1465 -3067)">
			<rect id="Rectangle_42-57" data-name="Rectangle 42" width="8" height="8" rx="4" transform="translate(1501 3235)" fill="#ff7e00" />
		</g>
		<g transform="translate(-1447 -3067)">
			<rect id="Rectangle_42-58" data-name="Rectangle 42" width="8" height="8" rx="4" transform="translate(1501 3235)" fill="#ff7e00" />
		</g>
		<g transform="translate(-1429 -3067)">
			<rect id="Rectangle_42-59" data-name="Rectangle 42" width="8" height="8" rx="4" transform="translate(1501 3235)" fill="#ff7e00" />
		</g>
		<g transform="translate(-1411 -3067)">
			<rect id="Rectangle_42-60" data-name="Rectangle 42" width="8" height="8" rx="4" transform="translate(1501 3235)" fill="#ff7e00" />
		</g>
		<g transform="translate(-1393 -3067)">
			<rect id="Rectangle_42-61" data-name="Rectangle 42" width="8" height="8" rx="4" transform="translate(1501 3235)" fill="#ff7e00" />
		</g>
		<g transform="translate(-1375 -3067)">
			<rect id="Rectangle_42-62" data-name="Rectangle 42" width="8" height="8" rx="4" transform="translate(1501 3235)" fill="#ff7e00" />
		</g>
		<g transform="translate(-1357 -3067)">
			<rect id="Rectangle_42-63" data-name="Rectangle 42" width="8" height="8" rx="4" transform="translate(1501 3235)" fill="#ff7e00" />
		</g>
		<g transform="translate(-1501 -3039)">
			<rect id="Rectangle_42-64" data-name="Rectangle 42" width="8" height="8" rx="4" transform="translate(1501 3235)" fill="#ff7e00" />
		</g>
		<g transform="translate(-1483 -3039)">
			<rect id="Rectangle_42-65" data-name="Rectangle 42" width="8" height="8" rx="4" transform="translate(1501 3235)" fill="#ff7e00" />
		</g>
		<g transform="translate(-1465 -3039)">
			<rect id="Rectangle_42-66" data-name="Rectangle 42" width="8" height="8" rx="4" transform="translate(1501 3235)" fill="#ff7e00" />
		</g>
		<g transform="translate(-1447 -3039)">
			<rect id="Rectangle_42-67" data-name="Rectangle 42" width="8" height="8" rx="4" transform="translate(1501 3235)" fill="#ff7e00" />
		</g>
		<g transform="translate(-1429 -3039)">
			<rect id="Rectangle_42-68" data-name="Rectangle 42" width="8" height="8" rx="4" transform="translate(1501 3235)" fill="#ff7e00" />
		</g>
		<g transform="translate(-1411 -3039)">
			<rect id="Rectangle_42-69" data-name="Rectangle 42" width="8" height="8" rx="4" transform="translate(1501 3235)" fill="#ff7e00" />
		</g>
		<g transform="translate(-1393 -3039)">
			<rect id="Rectangle_42-70" data-name="Rectangle 42" width="8" height="8" rx="4" transform="translate(1501 3235)" fill="#ff7e00" />
		</g>
		<g transform="translate(-1375 -3039)">
			<rect id="Rectangle_42-71" data-name="Rectangle 42" width="8" height="8" rx="4" transform="translate(1501 3235)" fill="#ff7e00" />
		</g>
		<g transform="translate(-1357 -3039)">
			<rect id="Rectangle_42-72" data-name="Rectangle 42" width="8" height="8" rx="4" transform="translate(1501 3235)" fill="#ff7e00" />
		</g>
		<g transform="translate(-1501 -3011)">
			<rect id="Rectangle_42-73" data-name="Rectangle 42" width="8" height="8" rx="4" transform="translate(1501 3235)" fill="#ff7e00" />
		</g>
		<g transform="translate(-1483 -3011)">
			<rect id="Rectangle_42-74" data-name="Rectangle 42" width="8" height="8" rx="4" transform="translate(1501 3235)" fill="#ff7e00" />
		</g>
		<g transform="translate(-1465 -3011)">
			<rect id="Rectangle_42-75" data-name="Rectangle 42" width="8" height="8" rx="4" transform="translate(1501 3235)" fill="#ff7e00" />
		</g>
		<g transform="translate(-1447 -3011)">
			<rect id="Rectangle_42-76" data-name="Rectangle 42" width="8" height="8" rx="4" transform="translate(1501 3235)" fill="#ff7e00" />
		</g>
		<g transform="translate(-1429 -3011)">
			<rect id="Rectangle_42-77" data-name="Rectangle 42" width="8" height="8" rx="4" transform="translate(1501 3235)" fill="#ff7e00" />
		</g>
		<g transform="translate(-1411 -3011)">
			<rect id="Rectangle_42-78" data-name="Rectangle 42" width="8" height="8" rx="4" transform="translate(1501 3235)" fill="#ff7e00" />
		</g>
		<g transform="translate(-1393 -3011)">
			<rect id="Rectangle_42-79" data-name="Rectangle 42" width="8" height="8" rx="4" transform="translate(1501 3235)" fill="#ff7e00" />
		</g>
		<g transform="translate(-1375 -3011)">
			<rect id="Rectangle_42-80" data-name="Rectangle 42" width="8" height="8" rx="4" transform="translate(1501 3235)" fill="#ff7e00" />
		</g>
		<g transform="translate(-1357 -3011)">
			<rect id="Rectangle_42-81" data-name="Rectangle 42" width="8" height="8" rx="4" transform="translate(1501 3235)" fill="#ff7e00" />
		</g>
		<g transform="translate(-1501 -2983)">
			<rect id="Rectangle_42-82" data-name="Rectangle 42" width="8" height="8" rx="4" transform="translate(1501 3235)" fill="#ff7e00" />
		</g>
		<g transform="translate(-1483 -2983)">
			<rect id="Rectangle_42-83" data-name="Rectangle 42" width="8" height="8" rx="4" transform="translate(1501 3235)" fill="#ff7e00" />
		</g>
		<g transform="translate(-1465 -2983)">
			<rect id="Rectangle_42-84" data-name="Rectangle 42" width="8" height="8" rx="4" transform="translate(1501 3235)" fill="#ff7e00" />
		</g>
		<g transform="translate(-1447 -2983)">
			<rect id="Rectangle_42-85" data-name="Rectangle 42" width="8" height="8" rx="4" transform="translate(1501 3235)" fill="#ff7e00" />
		</g>
		<g transform="translate(-1429 -2983)">
			<rect id="Rectangle_42-86" data-name="Rectangle 42" width="8" height="8" rx="4" transform="translate(1501 3235)" fill="#ff7e00" />
		</g>
		<g transform="translate(-1411 -2983)">
			<rect id="Rectangle_42-87" data-name="Rectangle 42" width="8" height="8" rx="4" transform="translate(1501 3235)" fill="#ff7e00" />
		</g>
		<g transform="translate(-1393 -2983)">
			<rect id="Rectangle_42-88" data-name="Rectangle 42" width="8" height="8" rx="4" transform="translate(1501 3235)" fill="#ff7e00" />
		</g>
		<g transform="translate(-1375 -2983)">
			<rect id="Rectangle_42-89" data-name="Rectangle 42" width="8" height="8" rx="4" transform="translate(1501 3235)" fill="#ff7e00" />
		</g>
		<g transform="translate(-1357 -2983)">
			<rect id="Rectangle_42-90" data-name="Rectangle 42" width="8" height="8" rx="4" transform="translate(1501 3235)" fill="#ff7e00" />
		</g>
		<g transform="translate(-1501 -2955)">
			<rect id="Rectangle_42-91" data-name="Rectangle 42" width="8" height="8" rx="4" transform="translate(1501 3235)" fill="#ff7e00" />
		</g>
		<g transform="translate(-1483 -2955)">
			<rect id="Rectangle_42-92" data-name="Rectangle 42" width="8" height="8" rx="4" transform="translate(1501 3235)" fill="#ff7e00" />
		</g>
		<g transform="translate(-1465 -2955)">
			<rect id="Rectangle_42-93" data-name="Rectangle 42" width="8" height="8" rx="4" transform="translate(1501 3235)" fill="#ff7e00" />
		</g>
		<g transform="translate(-1447 -2955)">
			<rect id="Rectangle_42-94" data-name="Rectangle 42" width="8" height="8" rx="4" transform="translate(1501 3235)" fill="#ff7e00" />
		</g>
		<g transform="translate(-1429 -2955)">
			<rect id="Rectangle_42-95" data-name="Rectangle 42" width="8" height="8" rx="4" transform="translate(1501 3235)" fill="#ff7e00" />
		</g>
		<g transform="translate(-1411 -2955)">
			<rect id="Rectangle_42-96" data-name="Rectangle 42" width="8" height="8" rx="4" transform="translate(1501 3235)" fill="#ff7e00" />
		</g>
		<g transform="translate(-1393 -2955)">
			<rect id="Rectangle_42-97" data-name="Rectangle 42" width="8" height="8" rx="4" transform="translate(1501 3235)" fill="#ff7e00" />
		</g>
		<g transform="translate(-1375 -2955)">
			<rect id="Rectangle_42-98" data-name="Rectangle 42" width="8" height="8" rx="4" transform="translate(1501 3235)" fill="#ff7e00" />
		</g>
		<g transform="translate(-1357 -2955)">
			<rect id="Rectangle_42-99" data-name="Rectangle 42" width="8" height="8" rx="4" transform="translate(1501 3235)" fill="#ff7e00" />
		</g>
		<g transform="translate(-1501 -2927)">
			<rect id="Rectangle_42-100" data-name="Rectangle 42" width="8" height="8" rx="4" transform="translate(1501 3235)" fill="#ff7e00" />
		</g>
		<g transform="translate(-1483 -2927)">
			<rect id="Rectangle_42-101" data-name="Rectangle 42" width="8" height="8" rx="4" transform="translate(1501 3235)" fill="#ff7e00" />
		</g>
		<g transform="translate(-1465 -2927)">
			<rect id="Rectangle_42-102" data-name="Rectangle 42" width="8" height="8" rx="4" transform="translate(1501 3235)" fill="#ff7e00" />
		</g>
		<g transform="translate(-1447 -2927)">
			<rect id="Rectangle_42-103" data-name="Rectangle 42" width="8" height="8" rx="4" transform="translate(1501 3235)" fill="#ff7e00" />
		</g>
		<g transform="translate(-1429 -2927)">
			<rect id="Rectangle_42-104" data-name="Rectangle 42" width="8" height="8" rx="4" transform="translate(1501 3235)" fill="#ff7e00" />
		</g>
		<g transform="translate(-1411 -2927)">
			<rect id="Rectangle_42-105" data-name="Rectangle 42" width="8" height="8" rx="4" transform="translate(1501 3235)" fill="#ff7e00" />
		</g>
		<g transform="translate(-1393 -2927)">
			<rect id="Rectangle_42-106" data-name="Rectangle 42" width="8" height="8" rx="4" transform="translate(1501 3235)" fill="#ff7e00" />
		</g>
		<g transform="translate(-1375 -2927)">
			<rect id="Rectangle_42-107" data-name="Rectangle 42" width="8" height="8" rx="4" transform="translate(1501 3235)" fill="#ff7e00" />
		</g>
		<g transform="translate(-1357 -2927)">
			<rect id="Rectangle_42-108" data-name="Rectangle 42" width="8" height="8" rx="4" transform="translate(1501 3235)" fill="#ff7e00" />
		</g>
		<g transform="translate(-1501 -2899)">
			<rect id="Rectangle_42-109" data-name="Rectangle 42" width="8" height="8" rx="4" transform="translate(1501 3235)" fill="#ff7e00" />
		</g>
		<g transform="translate(-1483 -2899)">
			<rect id="Rectangle_42-110" data-name="Rectangle 42" width="8" height="8" rx="4" transform="translate(1501 3235)" fill="#ff7e00" />
		</g>
		<g transform="translate(-1465 -2899)">
			<rect id="Rectangle_42-111" data-name="Rectangle 42" width="8" height="8" rx="4" transform="translate(1501 3235)" fill="#ff7e00" />
		</g>
		<g transform="translate(-1447 -2899)">
			<rect id="Rectangle_42-112" data-name="Rectangle 42" width="8" height="8" rx="4" transform="translate(1501 3235)" fill="#ff7e00" />
		</g>
		<g transform="translate(-1429 -2899)">
			<rect id="Rectangle_42-113" data-name="Rectangle 42" width="8" height="8" rx="4" transform="translate(1501 3235)" fill="#ff7e00" />
		</g>
		<g transform="translate(-1411 -2899)">
			<rect id="Rectangle_42-114" data-name="Rectangle 42" width="8" height="8" rx="4" transform="translate(1501 3235)" fill="#ff7e00" />
		</g>
		<g transform="translate(-1393 -2899)">
			<rect id="Rectangle_42-115" data-name="Rectangle 42" width="8" height="8" rx="4" transform="translate(1501 3235)" fill="#ff7e00" />
		</g>
		<g transform="translate(-1375 -2899)">
			<rect id="Rectangle_42-116" data-name="Rectangle 42" width="8" height="8" rx="4" transform="translate(1501 3235)" fill="#ff7e00" />
		</g>
		<g transform="translate(-1357 -2899)">
			<rect id="Rectangle_42-117" data-name="Rectangle 42" width="8" height="8" rx="4" transform="translate(1501 3235)" fill="#ff7e00" />
		</g>
		<g transform="translate(-1501 -2871)">
			<rect id="Rectangle_42-118" data-name="Rectangle 42" width="8" height="8" rx="4" transform="translate(1501 3235)" fill="#ff7e00" />
		</g>
		<g transform="translate(-1483 -2871)">
			<rect id="Rectangle_42-119" data-name="Rectangle 42" width="8" height="8" rx="4" transform="translate(1501 3235)" fill="#ff7e00" />
		</g>
		<g transform="translate(-1465 -2871)">
			<rect id="Rectangle_42-120" data-name="Rectangle 42" width="8" height="8" rx="4" transform="translate(1501 3235)" fill="#ff7e00" />
		</g>
		<g transform="translate(-1447 -2871)">
			<rect id="Rectangle_42-121" data-name="Rectangle 42" width="8" height="8" rx="4" transform="translate(1501 3235)" fill="#ff7e00" />
		</g>
		<g transform="translate(-1429 -2871)">
			<rect id="Rectangle_42-122" data-name="Rectangle 42" width="8" height="8" rx="4" transform="translate(1501 3235)" fill="#ff7e00" />
		</g>
		<g transform="translate(-1411 -2871)">
			<rect id="Rectangle_42-123" data-name="Rectangle 42" width="8" height="8" rx="4" transform="translate(1501 3235)" fill="#ff7e00" />
		</g>
		<g transform="translate(-1393 -2871)">
			<rect id="Rectangle_42-124" data-name="Rectangle 42" width="8" height="8" rx="4" transform="translate(1501 3235)" fill="#ff7e00" />
		</g>
		<g transform="translate(-1375 -2871)">
			<rect id="Rectangle_42-125" data-name="Rectangle 42" width="8" height="8" rx="4" transform="translate(1501 3235)" fill="#ff7e00" />
		</g>
		<g transform="translate(-1357 -2871)">
			<rect id="Rectangle_42-126" data-name="Rectangle 42" width="8" height="8" rx="4" transform="translate(1501 3235)" fill="#ff7e00" />
		</g>
	</g>
</svg>
