<svg xmlns="http://www.w3.org/2000/svg" width="53" height="53.034" viewBox="0 0 53 53.034">
	<g id="Group_10365" data-name="Group 10365" transform="translate(39.761 -239.16)">
		<path id="Path_14924" data-name="Path 14924" d="M-39.76,265.647A26.569,26.569,0,0,1-13.232,239.16a26.548,26.548,0,0,1,26.471,26.478,26.543,26.543,0,0,1-26.433,26.555A26.541,26.541,0,0,1-39.76,265.647Zm49.76.047a23.391,23.391,0,0,0-23.636-23.421c-12.429.121-22.91,10.745-22.888,23.4a23.347,23.347,0,0,0,23.547,23.393A23.3,23.3,0,0,0,10,265.694Z" transform="translate(0 0)" fill="#fff" />
		<path id="Path_14925" data-name="Path 14925" d="M112.8,334.587c0-2.892-.021-5.785.017-8.677.008-.608-.189-.72-.73-.7-.943.04-1.891-.016-2.835.023-.471.019-.562-.155-.558-.581q.029-2.608,0-5.217c-.005-.419.118-.577.541-.567.869.021,1.739.01,2.609.011.938,0,.957-.026.97-.943.025-1.795-.112-3.594.069-5.384a6.433,6.433,0,0,1,5.714-5.835c2.386-.266,4.793-.219,7.193-.25.529-.007,1.059-.011,1.588-.034.312-.013.432.1.43.423-.012,1.909-.018,3.819,0,5.728,0,.4-.205.417-.493.417-1.191,0-2.382-.006-3.573,0-1.749.016-2.4.674-2.4,2.412,0,.964.023,1.929,0,2.892-.01.426.139.55.558.546,1.815-.018,3.63,0,5.444-.013.39,0,.53.076.472.5q-.371,2.725-.682,5.457c-.04.35-.186.424-.507.422-1.588-.014-3.176.013-4.764-.018-.465-.009-.551.144-.55.572.013,5.86,0,11.721.021,17.581,0,.516-.127.663-.651.655q-3.657-.055-7.315-.026c-.493,0-.584-.163-.581-.615C112.811,340.448,112.8,337.517,112.8,334.587Z" transform="translate(-131.609 -59.642)" fill="#fff" />
	</g>
</svg>
